<?xml version="1.0" encoding="UTF-8"?>
<svg preserveAspectRatio="none" version="1.1" viewBox="0 0 550 600" xmlns="http://www.w3.org/2000/svg" xmlns:xlink="http://www.w3.org/1999/xlink">
 <defs>
  <radialGradient id="h" cx="0" cy="0" r="6.4" gradientTransform="translate(-47.2 -146.25)" gradientUnits="userSpaceOnUse">
   <stop stop-color="#fff" offset="0"/>
   <stop offset="1"/>
  </radialGradient>
  <filter id="g" x="-20%" y="-20%" width="140%" height="140%" color-interpolation-filters="sRGB">
   <feFlood flood-color="#CC3300" in="SourceGraphic" result="result1"/>
   <feComposite in="result1" in2="SourceGraphic" operator="in" result="result2"/>
   <feGaussianBlur in="result2" result="result3" stdDeviation="1.6666666666666667,1.6666666666666667"/>
   <feFlood flood-color="#000000" in="SourceGraphic" result="result4"/>
   <feComposite in="result4" in2="SourceGraphic" operator="in" result="result5"/>
   <feGaussianBlur in="result5" result="result6" stdDeviation="1.6666666666666667,1.6666666666666667"/>
   <feOffset dx="-2.867882181755232" dy="-4.095760221444958" in="result3" result="result7"/>
   <feOffset dx="2.867882181755232" dy="4.095760221444958" in="result3" result="result8"/>
   <feOffset dx="2.867882181755232" dy="4.095760221444958" in="result6" result="result9"/>
   <feOffset dx="-2.867882181755232" dy="-4.095760221444958" in="result6" result="result10"/>
   <feColorMatrix in="SourceGraphic" result="result11" values="0 0 0 0 255 0 0 0 0 255 0 0 0 0 255 0 0 0 255 0"/>
   <feFlood flood-color="#000000" flood-opacity="0" in="SourceGraphic" result="result12"/>
   <feComposite in="result7" in2="result8" k2="-1" k3="1" operator="arithmetic" result="result13"/>
   <feComposite in="result9" in2="result10" k2="-1" k3="1" operator="arithmetic" result="result14"/>
   <feComposite in="result13" in2="result12" operator="xor" result="result15"/>
   <feComposite in="result14" in2="result15" operator="xor" result="result16"/>
   <feComposite in="result16" in2="result11" operator="in" result="result17"/>
   <feBlend in="result17" in2="SourceGraphic" result="result18"/>
  </filter>
  <g id="k">
   <path d="m259.55-59.6q10.75-29.7-16.9-24.65-47.194 8.9598-108 12.35-60.796 3.401-136.05 2.75-75.204-0.60137-134.6-4.65-59.406-4.0102-106.65-12.95-27.6-5.1-16.85 24.65 7.55 30.15 8.1 60.35-0.55 33.7-8.1 63.85-10.75 29.75 16.85 24.65 47.253-8.9514 108.2-12.1 60.999-3.0891 135.9-4.15 74.951-1.0611 134.45 3.1 59.553 4.201 106.75 13.15 27.65 5.1 16.9-24.65-7.6-30.15-8.15-60.35 0.55-31.15 8.15-61.35m-12.15-6.2q-10.6 5.2-5.75-5.75l5.75 5.75m-5 140.9q-7.2-9.3 4.5-6.75l-4.5 6.75m-487.6-150.95q5.2 10.6-5.75 5.75l5.75-5.75m1.75 149.8l-5.75-5.75q10.598-5.2195 5.75 5.75z" fill="#fc9"/>
  </g>
  <g id="j">
   <path d="m-249.2 68.2l5.75 5.75q4.8477-10.97-5.75-5.75m4-144.05l-5.75 5.75q10.95 4.85 5.75-5.75m487.6 150.95l4.5-6.75q-11.7-2.55-4.5 6.75m5-140.9l-5.75-5.75q-4.85 10.95 5.75 5.75z"/>
  </g>
  <g id="a">
   <path d="m-43.15-150.35q-1.65-1.65-4.05-1.65t-4.1 1.65q-1.65 1.7-1.65 4.1t1.65 4.05q1.7 1.7 4.1 1.7t4.05-1.7q1.7-1.65 1.7-4.05t-1.7-4.1z" fill="url(#h)"/>
  </g>
  <path id="i" d="m251.15-60.3q11.15-21.9-15.5-16.5m6 5.25q-4.85 10.95 5.75 5.75l-5.75-5.75zm-3.85 151.4q23.7 6.5 13-18.5m-3.9 7q-11.7-2.55-4.5 6.75l4.5-6.75zm-497.85-138.45q10.95 4.85 5.75-5.75l-5.75 5.75zm11.25-9.5q-21.9-11.15-16.5 15.5m12.75 138.05q4.8477-10.97-5.75-5.75l5.75 5.75zm-9.5-11.25q-11.15 21.9 15.5 16.5" fill="none" stroke="#000" stroke-linecap="round" stroke-linejoin="round"/>
 </defs>
 <g transform="translate(280.5 313.1)">
  <g transform="translate(-280.5 -313.1)" filter="url(#g)">
   <g transform="translate(280.5 313.1)">
    <use xlink:href="#k"/>
   </g>
  </g>
  <use xlink:href="#j"/>
  <use xlink:href="#i"/>
  <g transform="translate(-254.95 -81)">
   <g transform="translate(52.95 152)">
    <use xlink:href="#a"/>
   </g>
  </g>
  <g transform="translate(-254.95 68.2)">
   <g transform="translate(52.95 152)">
    <use xlink:href="#a"/>
   </g>
  </g>
  <g transform="translate(241.2 -76.8)">
   <g transform="translate(52.95 152)">
    <use xlink:href="#a"/>
   </g>
  </g>
  <g transform="translate(241.2 68.2)">
   <g transform="translate(52.95 152)">
    <use xlink:href="#a"/>
   </g>
  </g>
 </g>
</svg>
